<svg width="248" height="211" viewBox="0 0 248 211" fill="none" xmlns="http://www.w3.org/2000/svg">
<path d="M94.4355 94.364C94.4355 127.161 121.005 153.765 153.759 153.765C186.513 153.765 213.083 127.161 213.083 94.364C213.083 61.5671 186.513 34.9907 153.759 34.9907C121.005 34.9907 94.4355 61.5671 94.4355 94.364Z" fill="url(#paint0_radial_722_130)"/>
<path style="mix-blend-mode:overlay" d="M162.773 88.2546C147.658 75.98 141.75 57.2905 149.599 46.5156C157.42 35.7406 176.03 36.9348 191.145 49.2093C206.26 61.4839 212.14 80.1734 204.319 90.9483C196.47 101.723 177.888 100.529 162.773 88.2546Z" fill="url(#paint1_radial_722_130)"/>
<path style="mix-blend-mode:overlay" opacity="0.4" d="M101.314 107.5C103.31 100.946 113.489 103.667 124.028 113.581C134.595 123.523 141.501 136.881 139.531 143.462C137.535 150.016 127.356 147.322 116.789 137.381C106.25 127.439 99.3167 114.081 101.286 107.5H101.314Z" fill="url(#paint2_radial_722_130)"/>
<path d="M160.942 17.4121C160.942 21.3833 157.725 24.6046 153.759 24.6046C149.793 24.6046 146.576 21.3833 146.576 17.4121V7.19255C146.576 3.22137 149.793 0 153.759 0C157.725 0 160.942 3.22137 160.942 7.19255V17.4121Z" fill="url(#paint3_radial_722_130)"/>
<path d="M104.475 34.8796C107.276 37.6844 107.276 42.2665 104.475 45.0714C101.674 47.8762 97.1255 47.8762 94.2967 45.0714L87.0857 37.851C84.2846 35.0462 84.2846 30.4641 87.0857 27.6593C89.8869 24.8545 94.4631 24.8545 97.2642 27.6593L104.475 34.8796Z" fill="url(#paint4_radial_722_130)"/>
<path d="M76.8795 87.1714C80.8455 87.1714 84.0627 90.3928 84.0627 94.3639C84.0627 98.3351 80.8455 101.556 76.8795 101.556H66.6733C62.7073 101.556 59.4901 98.3351 59.4624 94.3639C59.4624 90.3928 62.6796 87.1714 66.6733 87.1714H76.8795Z" fill="url(#paint5_radial_722_130)"/>
<path d="M94.3245 143.684C97.1256 140.88 101.702 140.88 104.503 143.684C107.304 146.489 107.304 151.044 104.503 153.876L97.2921 161.096C94.4909 163.901 89.9147 163.901 87.1136 161.096C84.3124 158.292 84.3124 153.71 87.1136 150.905L94.3245 143.684Z" fill="url(#paint6_radial_722_130)"/>
<path d="M146.548 171.316C146.548 167.345 149.765 164.124 153.731 164.124C157.697 164.124 160.914 167.345 160.914 171.316V181.536C160.914 185.507 157.697 188.728 153.731 188.728C149.765 188.728 146.548 185.507 146.548 181.536V171.316Z" fill="url(#paint7_radial_722_130)"/>
<path d="M203.015 153.876C200.214 151.071 200.214 146.489 203.015 143.684C205.816 140.88 210.365 140.88 213.193 143.684L220.404 150.905C223.206 153.71 223.206 158.292 220.404 161.096C217.603 163.901 213.027 163.901 210.226 161.096L203.015 153.876Z" fill="url(#paint8_radial_722_130)"/>
<path d="M230.583 101.584C226.617 101.584 223.4 98.363 223.4 94.3918C223.4 90.4206 226.617 87.1992 230.583 87.1992H240.789C244.755 87.1992 247.972 90.4206 248 94.3918C248 98.363 244.783 101.584 240.789 101.584H230.583Z" fill="url(#paint9_radial_722_130)"/>
<path d="M213.166 45.0438C210.365 47.8486 205.789 47.8486 202.988 45.0438C200.186 42.239 200.186 37.6846 202.988 34.852L210.199 27.6317C213 24.8269 217.576 24.8269 220.377 27.6317C223.178 30.4365 223.178 35.0186 220.377 37.8235L213.166 45.0438Z" fill="url(#paint10_radial_722_130)"/>
<path d="M77.8779 55.0132C114.57 55.0132 145.3 80.4232 153.565 114.609C160.221 111.387 167.682 109.499 175.586 109.499C203.57 109.499 226.256 132.215 226.256 160.235C226.256 188.256 203.57 210.972 175.586 210.972H77.8779C34.862 210.972 0 176.065 0 132.993C0 89.9207 34.862 55.0132 77.8779 55.0132Z" fill="url(#paint11_radial_722_130)"/>
<path d="M77.8779 55.0132C114.57 55.0132 145.3 80.4232 153.565 114.609C160.221 111.387 167.682 109.499 175.586 109.499C203.57 109.499 226.256 132.215 226.256 160.235C226.256 188.256 203.57 210.972 175.586 210.972H77.8779C34.862 210.972 0 176.065 0 132.993C0 89.9207 34.862 55.0132 77.8779 55.0132Z" fill="url(#paint12_radial_722_130)"/>
<path style="mix-blend-mode:overlay" d="M67.921 129.549C88.1948 113.081 96.1268 87.9768 85.6155 73.5084C75.1042 59.04 50.1434 60.6507 29.8419 77.1186C9.56811 93.5865 1.66384 118.691 12.1751 133.159C22.6864 147.628 47.675 146.017 67.9488 129.549H67.921Z" fill="url(#paint13_radial_722_130)"/>
<path style="mix-blend-mode:overlay" opacity="0.4" d="M169.984 150.96C181.133 141.907 185.487 128.105 179.691 120.163C173.922 112.193 160.193 113.109 149.044 122.134C137.895 131.188 133.568 144.989 139.337 152.932C145.134 160.902 158.862 159.986 169.984 150.96Z" fill="url(#paint14_radial_722_130)"/>
<path style="mix-blend-mode:overlay" opacity="0.2" d="M194.695 170.677C206.953 158.264 219.6 153.404 222.984 159.819C226.34 166.234 219.129 181.508 206.87 193.921C194.612 206.335 181.937 211.194 178.581 204.779C175.225 198.364 182.436 183.091 194.695 170.677Z" fill="url(#paint15_radial_722_130)"/>
<defs>
<radialGradient id="paint0_radial_722_130" cx="0" cy="0" r="1" gradientUnits="userSpaceOnUse" gradientTransform="translate(167.294 57.1238) rotate(-180) scale(112.601 112.748)">
<stop stop-color="#FFF8C7"/>
<stop offset="0.16" stop-color="#FFE436"/>
<stop offset="1" stop-color="#FE761C"/>
</radialGradient>
<radialGradient id="paint1_radial_722_130" cx="0" cy="0" r="1" gradientUnits="userSpaceOnUse" gradientTransform="translate(478.842 -354.896) rotate(125.994) scale(24.1736 35.1474)">
<stop stop-color="white"/>
<stop offset="0.1" stop-color="white" stop-opacity="0.85"/>
<stop offset="0.29" stop-color="white" stop-opacity="0.59"/>
<stop offset="0.47" stop-color="white" stop-opacity="0.38"/>
<stop offset="0.63" stop-color="white" stop-opacity="0.22"/>
<stop offset="0.78" stop-color="white" stop-opacity="0.1"/>
<stop offset="0.91" stop-color="white" stop-opacity="0.03"/>
<stop offset="1" stop-color="white" stop-opacity="0"/>
</radialGradient>
<radialGradient id="paint2_radial_722_130" cx="0" cy="0" r="1" gradientUnits="userSpaceOnUse" gradientTransform="translate(2117.36 2035.27) rotate(-136.753) scale(26.2716 11.097)">
<stop stop-color="white"/>
<stop offset="0.1" stop-color="white" stop-opacity="0.85"/>
<stop offset="0.29" stop-color="white" stop-opacity="0.59"/>
<stop offset="0.47" stop-color="white" stop-opacity="0.38"/>
<stop offset="0.63" stop-color="white" stop-opacity="0.22"/>
<stop offset="0.78" stop-color="white" stop-opacity="0.1"/>
<stop offset="0.91" stop-color="white" stop-opacity="0.03"/>
<stop offset="1" stop-color="white" stop-opacity="0"/>
</radialGradient>
<radialGradient id="paint3_radial_722_130" cx="0" cy="0" r="1" gradientUnits="userSpaceOnUse" gradientTransform="translate(155.062 3.63793) scale(19.5804 19.6059)">
<stop stop-color="#FFF8C7"/>
<stop offset="0.16" stop-color="#FFE436"/>
<stop offset="1" stop-color="#FE761C"/>
</radialGradient>
<radialGradient id="paint4_radial_722_130" cx="0" cy="0" r="1" gradientUnits="userSpaceOnUse" gradientTransform="translate(90.5908 29.2545) rotate(-45.0373) scale(19.5932 19.5932)">
<stop stop-color="#FFF8C7"/>
<stop offset="0.16" stop-color="#FFE436"/>
<stop offset="1" stop-color="#FE761C"/>
</radialGradient>
<radialGradient id="paint5_radial_722_130" cx="0" cy="0" r="1" gradientUnits="userSpaceOnUse" gradientTransform="translate(63.1233 93.0587) rotate(-90) scale(19.6059 19.5804)">
<stop stop-color="#FFF8C7"/>
<stop offset="0.16" stop-color="#FFE436"/>
<stop offset="1" stop-color="#FE761C"/>
</radialGradient>
<radialGradient id="paint6_radial_722_130" cx="0" cy="0" r="1" gradientUnits="userSpaceOnUse" gradientTransform="translate(88.7134 157.561) rotate(-134.963) scale(19.5932 19.5932)">
<stop stop-color="#FFF8C7"/>
<stop offset="0.16" stop-color="#FFE436"/>
<stop offset="1" stop-color="#FE761C"/>
</radialGradient>
<radialGradient id="paint7_radial_722_130" cx="0" cy="0" r="1" gradientUnits="userSpaceOnUse" gradientTransform="translate(152.455 185.118) rotate(180) scale(19.5804 19.6059)">
<stop stop-color="#FFF8C7"/>
<stop offset="0.16" stop-color="#FFE436"/>
<stop offset="1" stop-color="#FE761C"/>
</radialGradient>
<radialGradient id="paint8_radial_722_130" cx="0" cy="0" r="1" gradientUnits="userSpaceOnUse" gradientTransform="translate(216.88 159.469) rotate(134.963) scale(19.5932 19.5932)">
<stop stop-color="#FFF8C7"/>
<stop offset="0.16" stop-color="#FFE436"/>
<stop offset="1" stop-color="#FE761C"/>
</radialGradient>
<radialGradient id="paint9_radial_722_130" cx="0" cy="0" r="1" gradientUnits="userSpaceOnUse" gradientTransform="translate(244.367 95.6692) rotate(90) scale(19.606 19.5804)">
<stop stop-color="#FFF8C7"/>
<stop offset="0.16" stop-color="#FFE436"/>
<stop offset="1" stop-color="#FE761C"/>
</radialGradient>
<radialGradient id="paint10_radial_722_130" cx="0" cy="0" r="1" gradientUnits="userSpaceOnUse" gradientTransform="translate(218.739 31.1543) rotate(45.0374) scale(19.5932 19.5932)">
<stop stop-color="#FFF8C7"/>
<stop offset="0.16" stop-color="#FFE436"/>
<stop offset="1" stop-color="#FE761C"/>
</radialGradient>
<radialGradient id="paint11_radial_722_130" cx="0" cy="0" r="1" gradientUnits="userSpaceOnUse" gradientTransform="translate(48.7014 76.4242) rotate(-180) scale(193.391 193.643)">
<stop stop-color="white"/>
<stop offset="0.2" stop-color="#D9F7FF"/>
<stop offset="1" stop-color="#89C0F5"/>
</radialGradient>
<radialGradient id="paint12_radial_722_130" cx="0" cy="0" r="1" gradientUnits="userSpaceOnUse" gradientTransform="translate(137.756 92.3922) scale(120.311 120.468)">
<stop stop-color="#FFE436"/>
<stop offset="0.08" stop-color="#FECE30" stop-opacity="0.81"/>
<stop offset="0.18" stop-color="#FEB72B" stop-opacity="0.6"/>
<stop offset="0.28" stop-color="#FEA326" stop-opacity="0.41"/>
<stop offset="0.38" stop-color="#FE9322" stop-opacity="0.26"/>
<stop offset="0.48" stop-color="#FE861F" stop-opacity="0.15"/>
<stop offset="0.58" stop-color="#FE7D1D" stop-opacity="0.07"/>
<stop offset="0.68" stop-color="#FE771C" stop-opacity="0.02"/>
<stop offset="0.77" stop-color="#FE761C" stop-opacity="0"/>
</radialGradient>
<radialGradient id="paint13_radial_722_130" cx="0" cy="0" r="1" gradientUnits="userSpaceOnUse" gradientTransform="translate(-363.931 -476.405) rotate(54.0055) scale(32.4696 47.2095)">
<stop stop-color="white"/>
<stop offset="0.1" stop-color="white" stop-opacity="0.85"/>
<stop offset="0.29" stop-color="white" stop-opacity="0.59"/>
<stop offset="0.47" stop-color="white" stop-opacity="0.38"/>
<stop offset="0.63" stop-color="white" stop-opacity="0.22"/>
<stop offset="0.78" stop-color="white" stop-opacity="0.1"/>
<stop offset="0.91" stop-color="white" stop-opacity="0.03"/>
<stop offset="1" stop-color="white" stop-opacity="0"/>
</radialGradient>
<radialGradient id="paint14_radial_722_130" cx="0" cy="0" r="1" gradientUnits="userSpaceOnUse" gradientTransform="translate(-250.98 -440.028) rotate(54.0055) scale(17.8622 25.971)">
<stop stop-color="white"/>
<stop offset="0.1" stop-color="white" stop-opacity="0.85"/>
<stop offset="0.29" stop-color="white" stop-opacity="0.59"/>
<stop offset="0.47" stop-color="white" stop-opacity="0.38"/>
<stop offset="0.63" stop-color="white" stop-opacity="0.22"/>
<stop offset="0.78" stop-color="white" stop-opacity="0.1"/>
<stop offset="0.91" stop-color="white" stop-opacity="0.03"/>
<stop offset="1" stop-color="white" stop-opacity="0"/>
</radialGradient>
<radialGradient id="paint15_radial_722_130" cx="0" cy="0" r="1" gradientUnits="userSpaceOnUse" gradientTransform="translate(252.561 216.343) rotate(-146.956) scale(10.9537 30.0083)">
<stop stop-color="white"/>
<stop offset="0.1" stop-color="white" stop-opacity="0.85"/>
<stop offset="0.29" stop-color="white" stop-opacity="0.59"/>
<stop offset="0.47" stop-color="white" stop-opacity="0.38"/>
<stop offset="0.63" stop-color="white" stop-opacity="0.22"/>
<stop offset="0.78" stop-color="white" stop-opacity="0.1"/>
<stop offset="0.91" stop-color="white" stop-opacity="0.03"/>
<stop offset="1" stop-color="white" stop-opacity="0"/>
</radialGradient>
</defs>
</svg>
