<svg width="286" height="246" viewBox="0 0 286 246" fill="none" xmlns="http://www.w3.org/2000/svg">
<path d="M135.836 0C172.961 0 204.088 25.6308 212.445 60.1284C219.193 56.8588 226.718 54.9745 234.742 54.9745C263.065 54.9745 286.028 77.8898 286.028 106.153C286.028 134.416 263.065 157.331 234.742 157.331H135.836C92.2977 157.331 57.0059 122.113 57.0059 78.6657C57.0059 35.2181 92.2977 0 135.836 0Z" fill="url(#paint0_radial_722_171)"/>
<path style="mix-blend-mode:overlay" opacity="0.5" d="M125.729 75.1743C146.249 58.5489 154.274 33.2507 143.639 18.648C133.004 4.04543 107.708 5.68026 87.1887 22.2779C66.6689 38.9033 58.672 64.2015 69.3067 78.8042C79.9415 93.4068 105.237 91.7719 125.757 75.1466L125.729 75.1743Z" fill="url(#paint1_radial_722_171)"/>
<path style="mix-blend-mode:overlay" opacity="0.3" d="M229.023 96.7596C240.296 87.6157 244.711 73.7058 238.852 65.6979C232.993 57.6623 219.11 58.5767 207.836 67.693C196.563 76.8369 192.148 90.7468 198.007 98.7547C203.866 106.79 217.749 105.876 229.023 96.7596Z" fill="url(#paint2_radial_722_171)"/>
<path style="mix-blend-mode:overlay" opacity="0.2" d="M254.04 116.655C266.452 104.13 279.253 99.2257 282.668 105.71C286.056 112.166 278.781 127.6 266.369 140.124C253.957 152.649 241.129 157.553 237.741 151.069C234.353 144.585 241.628 129.179 254.04 116.655Z" fill="url(#paint3_radial_722_171)"/>
<path d="M78.8305 42.5332C115.955 42.5332 147.082 68.164 155.44 102.662C162.187 99.392 169.74 97.5077 177.737 97.5077C206.059 97.5077 229.022 120.423 229.022 148.686C229.022 176.949 206.059 199.865 177.737 199.865H78.8305C35.2918 199.865 0 164.647 0 121.199C0 77.7513 35.2918 42.5332 78.8305 42.5332Z" fill="url(#paint4_radial_722_171)"/>
<path style="mix-blend-mode:overlay" d="M68.7234 117.707C89.2432 101.082 97.2679 75.7839 86.6331 61.1812C75.9984 46.5786 50.7304 48.2135 30.1828 64.8111C9.66303 81.4365 1.66613 106.735 12.3009 121.337C22.9634 135.94 48.2314 134.305 68.7512 117.707H68.7234Z" fill="url(#paint5_radial_722_171)"/>
<path style="mix-blend-mode:overlay" opacity="0.4" d="M172.017 139.293C183.29 130.149 187.705 116.267 181.846 108.231C175.987 100.196 162.104 101.11 150.83 110.226C139.557 119.37 135.142 133.28 141.001 141.288C146.86 149.323 160.743 148.409 172.017 139.293Z" fill="url(#paint6_radial_722_171)"/>
<path style="mix-blend-mode:overlay" opacity="0.2" d="M197.062 159.188C209.474 146.663 222.275 141.759 225.69 148.243C229.078 154.727 221.803 170.133 209.391 182.657C196.979 195.182 184.151 200.086 180.763 193.602C177.375 187.118 184.65 171.712 197.062 159.188Z" fill="url(#paint7_radial_722_171)"/>
<path d="M72.5829 240.32C69.4174 245.778 62.4479 247.635 56.9778 244.476C51.5077 241.345 49.6473 234.362 52.8128 228.904C55.9504 223.445 75.4706 212.528 75.4706 212.528C75.4706 212.528 75.7483 234.833 72.5829 240.292V240.32Z" fill="url(#paint8_radial_722_171)"/>
<path style="mix-blend-mode:overlay" d="M53.146 238.436C51.3689 233.836 52.4518 228.959 55.5617 227.601C58.6717 226.216 62.6146 228.848 64.3917 233.476C66.1687 238.103 65.0858 242.952 61.9759 244.31C58.866 245.695 54.9231 243.063 53.146 238.436Z" fill="url(#paint9_radial_722_171)"/>
<path d="M135.475 240.32C132.337 245.778 125.34 247.635 119.87 244.476C114.4 241.345 112.539 234.362 115.677 228.904C118.843 223.445 138.335 212.528 138.335 212.528C138.335 212.528 138.613 234.833 135.447 240.292L135.475 240.32Z" fill="url(#paint10_radial_722_171)"/>
<path style="mix-blend-mode:overlay" d="M116.038 238.436C114.261 233.836 115.344 228.959 118.454 227.601C121.564 226.216 125.507 228.848 127.256 233.476C129.033 238.103 127.95 242.952 124.84 244.31C121.73 245.695 117.787 243.063 116.038 238.436Z" fill="url(#paint11_radial_722_171)"/>
<path d="M198.367 240.32C195.229 245.778 188.232 247.635 182.762 244.476C177.292 241.345 175.432 234.362 178.569 228.904C181.735 223.445 201.227 212.528 201.227 212.528C201.227 212.528 201.505 234.833 198.339 240.292L198.367 240.32Z" fill="url(#paint12_radial_722_171)"/>
<path style="mix-blend-mode:overlay" d="M178.93 238.436C177.153 233.836 178.236 228.959 181.346 227.601C184.456 226.216 188.399 228.848 190.148 233.476C191.925 238.103 190.842 242.952 187.732 244.31C184.622 245.695 180.68 243.063 178.93 238.436Z" fill="url(#paint13_radial_722_171)"/>
<path d="M113.678 207.568C109.18 215.326 99.2672 217.959 91.4925 213.497C83.7177 209.036 81.0798 199.116 85.5503 191.386C90.0208 183.627 117.732 168.11 117.732 168.11C117.732 168.11 118.121 199.809 113.651 207.568H113.678Z" fill="url(#paint14_radial_722_171)"/>
<path style="mix-blend-mode:overlay" d="M86.0223 204.88C83.4955 198.313 85.0227 191.413 89.4377 189.474C93.8526 187.506 99.4616 191.247 101.961 197.814C104.487 204.381 102.932 211.281 98.5452 213.22C94.1303 215.188 88.5214 211.447 86.0223 204.88Z" fill="url(#paint15_radial_722_171)"/>
<path d="M181.513 207.568C177.042 215.326 167.102 217.959 159.355 213.497C151.58 209.036 148.942 199.116 153.413 191.386C157.911 183.627 185.622 168.11 185.622 168.11C185.622 168.11 186.011 199.809 181.541 207.568H181.513Z" fill="url(#paint16_radial_722_171)"/>
<path style="mix-blend-mode:overlay" d="M153.885 204.88C151.358 198.313 152.885 191.413 157.3 189.474C161.687 187.506 167.324 191.247 169.823 197.814C172.35 204.381 170.822 211.281 166.408 213.22C161.993 215.188 156.384 211.447 153.885 204.88Z" fill="url(#paint17_radial_722_171)"/>
<defs>
<radialGradient id="paint0_radial_722_171" cx="0" cy="0" r="1" gradientUnits="userSpaceOnUse" gradientTransform="translate(106.264 21.5853) rotate(-180) scale(195.73 195.32)">
<stop stop-color="#BAD0D6"/>
<stop offset="0.2" stop-color="#9BBAC2"/>
<stop offset="1" stop-color="#5D8BB8"/>
</radialGradient>
<radialGradient id="paint1_radial_722_171" cx="0" cy="0" r="1" gradientUnits="userSpaceOnUse" gradientTransform="translate(-288.178 -503.742) rotate(53.9129) scale(32.7926 47.729)">
<stop stop-color="white"/>
<stop offset="0.1" stop-color="white" stop-opacity="0.85"/>
<stop offset="0.29" stop-color="white" stop-opacity="0.59"/>
<stop offset="0.47" stop-color="white" stop-opacity="0.38"/>
<stop offset="0.63" stop-color="white" stop-opacity="0.22"/>
<stop offset="0.78" stop-color="white" stop-opacity="0.1"/>
<stop offset="0.91" stop-color="white" stop-opacity="0.03"/>
<stop offset="1" stop-color="white" stop-opacity="0"/>
</radialGradient>
<radialGradient id="paint2_radial_722_171" cx="0" cy="0" r="1" gradientUnits="userSpaceOnUse" gradientTransform="translate(-173.926 -467.019) rotate(53.9129) scale(18.0419 26.2596)">
<stop stop-color="white"/>
<stop offset="0.1" stop-color="white" stop-opacity="0.85"/>
<stop offset="0.29" stop-color="white" stop-opacity="0.59"/>
<stop offset="0.47" stop-color="white" stop-opacity="0.38"/>
<stop offset="0.63" stop-color="white" stop-opacity="0.22"/>
<stop offset="0.78" stop-color="white" stop-opacity="0.1"/>
<stop offset="0.91" stop-color="white" stop-opacity="0.03"/>
<stop offset="1" stop-color="white" stop-opacity="0"/>
</radialGradient>
<radialGradient id="paint3_radial_722_171" cx="0" cy="0" r="1" gradientUnits="userSpaceOnUse" gradientTransform="translate(276.353 138.775) rotate(-147.045) scale(11.0722 30.2908)">
<stop stop-color="white"/>
<stop offset="0.1" stop-color="white" stop-opacity="0.85"/>
<stop offset="0.29" stop-color="white" stop-opacity="0.59"/>
<stop offset="0.47" stop-color="white" stop-opacity="0.38"/>
<stop offset="0.63" stop-color="white" stop-opacity="0.22"/>
<stop offset="0.78" stop-color="white" stop-opacity="0.1"/>
<stop offset="0.91" stop-color="white" stop-opacity="0.03"/>
<stop offset="1" stop-color="white" stop-opacity="0"/>
</radialGradient>
<radialGradient id="paint4_radial_722_171" cx="0" cy="0" r="1" gradientUnits="userSpaceOnUse" gradientTransform="translate(49.2864 64.1185) rotate(-180) scale(195.73 195.32)">
<stop stop-color="white"/>
<stop offset="0.2" stop-color="#D9F7FF"/>
<stop offset="1" stop-color="#89C0F5"/>
</radialGradient>
<radialGradient id="paint5_radial_722_171" cx="0" cy="0" r="1" gradientUnits="userSpaceOnUse" gradientTransform="translate(-347.38 -464.251) rotate(53.9129) scale(32.7926 47.7291)">
<stop stop-color="white"/>
<stop offset="0.1" stop-color="white" stop-opacity="0.85"/>
<stop offset="0.29" stop-color="white" stop-opacity="0.59"/>
<stop offset="0.47" stop-color="white" stop-opacity="0.38"/>
<stop offset="0.63" stop-color="white" stop-opacity="0.22"/>
<stop offset="0.78" stop-color="white" stop-opacity="0.1"/>
<stop offset="0.91" stop-color="white" stop-opacity="0.03"/>
<stop offset="1" stop-color="white" stop-opacity="0"/>
</radialGradient>
<radialGradient id="paint6_radial_722_171" cx="0" cy="0" r="1" gradientUnits="userSpaceOnUse" gradientTransform="translate(-233.082 -427.562) rotate(53.9129) scale(18.0419 26.2596)">
<stop stop-color="white"/>
<stop offset="0.1" stop-color="white" stop-opacity="0.85"/>
<stop offset="0.29" stop-color="white" stop-opacity="0.59"/>
<stop offset="0.47" stop-color="white" stop-opacity="0.38"/>
<stop offset="0.63" stop-color="white" stop-opacity="0.22"/>
<stop offset="0.78" stop-color="white" stop-opacity="0.1"/>
<stop offset="0.91" stop-color="white" stop-opacity="0.03"/>
<stop offset="1" stop-color="white" stop-opacity="0"/>
</radialGradient>
<radialGradient id="paint7_radial_722_171" cx="0" cy="0" r="1" gradientUnits="userSpaceOnUse" gradientTransform="translate(229.13 187.789) rotate(-147.045) scale(11.0722 30.2908)">
<stop stop-color="white"/>
<stop offset="0.1" stop-color="white" stop-opacity="0.85"/>
<stop offset="0.29" stop-color="white" stop-opacity="0.59"/>
<stop offset="0.47" stop-color="white" stop-opacity="0.38"/>
<stop offset="0.63" stop-color="white" stop-opacity="0.22"/>
<stop offset="0.78" stop-color="white" stop-opacity="0.1"/>
<stop offset="0.91" stop-color="white" stop-opacity="0.03"/>
<stop offset="1" stop-color="white" stop-opacity="0"/>
</radialGradient>
<radialGradient id="paint8_radial_722_171" cx="0" cy="0" r="1" gradientUnits="userSpaceOnUse" gradientTransform="translate(57.266 237.715) rotate(29.9481) scale(27.4472 27.4185)">
<stop stop-color="#D4F6FF"/>
<stop offset="0.2" stop-color="#D9F7FF"/>
<stop offset="1" stop-color="#89C0F5"/>
</radialGradient>
<radialGradient id="paint9_radial_722_171" cx="0" cy="0" r="1" gradientUnits="userSpaceOnUse" gradientTransform="translate(517.355 27.0753) rotate(156.084) scale(6.15243 8.93644)">
<stop stop-color="white"/>
<stop offset="0.1" stop-color="white" stop-opacity="0.85"/>
<stop offset="0.29" stop-color="white" stop-opacity="0.59"/>
<stop offset="0.47" stop-color="white" stop-opacity="0.38"/>
<stop offset="0.63" stop-color="white" stop-opacity="0.22"/>
<stop offset="0.78" stop-color="white" stop-opacity="0.1"/>
<stop offset="0.91" stop-color="white" stop-opacity="0.03"/>
<stop offset="1" stop-color="white" stop-opacity="0"/>
</radialGradient>
<radialGradient id="paint10_radial_722_171" cx="0" cy="0" r="1" gradientUnits="userSpaceOnUse" gradientTransform="translate(120.152 237.695) rotate(29.9481) scale(27.4472 27.4185)">
<stop stop-color="#D4F6FF"/>
<stop offset="0.2" stop-color="#D9F7FF"/>
<stop offset="1" stop-color="#89C0F5"/>
</radialGradient>
<radialGradient id="paint11_radial_722_171" cx="0" cy="0" r="1" gradientUnits="userSpaceOnUse" gradientTransform="translate(581.605 26.4592) rotate(156.084) scale(6.15243 8.93644)">
<stop stop-color="white"/>
<stop offset="0.1" stop-color="white" stop-opacity="0.85"/>
<stop offset="0.29" stop-color="white" stop-opacity="0.59"/>
<stop offset="0.47" stop-color="white" stop-opacity="0.38"/>
<stop offset="0.63" stop-color="white" stop-opacity="0.22"/>
<stop offset="0.78" stop-color="white" stop-opacity="0.1"/>
<stop offset="0.91" stop-color="white" stop-opacity="0.03"/>
<stop offset="1" stop-color="white" stop-opacity="0"/>
</radialGradient>
<radialGradient id="paint12_radial_722_171" cx="0" cy="0" r="1" gradientUnits="userSpaceOnUse" gradientTransform="translate(183.048 237.713) rotate(29.9481) scale(27.4472 27.4185)">
<stop stop-color="#D4F6FF"/>
<stop offset="0.2" stop-color="#D9F7FF"/>
<stop offset="1" stop-color="#89C0F5"/>
</radialGradient>
<radialGradient id="paint13_radial_722_171" cx="0" cy="0" r="1" gradientUnits="userSpaceOnUse" gradientTransform="translate(645.856 25.8432) rotate(156.084) scale(6.15243 8.93644)">
<stop stop-color="white"/>
<stop offset="0.1" stop-color="white" stop-opacity="0.85"/>
<stop offset="0.29" stop-color="white" stop-opacity="0.59"/>
<stop offset="0.47" stop-color="white" stop-opacity="0.38"/>
<stop offset="0.63" stop-color="white" stop-opacity="0.22"/>
<stop offset="0.78" stop-color="white" stop-opacity="0.1"/>
<stop offset="0.91" stop-color="white" stop-opacity="0.03"/>
<stop offset="1" stop-color="white" stop-opacity="0"/>
</radialGradient>
<radialGradient id="paint14_radial_722_171" cx="0" cy="0" r="1" gradientUnits="userSpaceOnUse" gradientTransform="translate(91.9204 203.864) rotate(29.9481) scale(39.02 38.9791)">
<stop stop-color="#D4F6FF"/>
<stop offset="0.2" stop-color="#D9F7FF"/>
<stop offset="1" stop-color="#89C0F5"/>
</radialGradient>
<radialGradient id="paint15_radial_722_171" cx="0" cy="0" r="1" gradientUnits="userSpaceOnUse" gradientTransform="translate(551.902 -7.16571) rotate(156.084) scale(8.73249 12.684)">
<stop stop-color="white"/>
<stop offset="0.1" stop-color="white" stop-opacity="0.85"/>
<stop offset="0.29" stop-color="white" stop-opacity="0.59"/>
<stop offset="0.47" stop-color="white" stop-opacity="0.38"/>
<stop offset="0.63" stop-color="white" stop-opacity="0.22"/>
<stop offset="0.78" stop-color="white" stop-opacity="0.1"/>
<stop offset="0.91" stop-color="white" stop-opacity="0.03"/>
<stop offset="1" stop-color="white" stop-opacity="0"/>
</radialGradient>
<radialGradient id="paint16_radial_722_171" cx="0" cy="0" r="1" gradientUnits="userSpaceOnUse" gradientTransform="translate(159.793 203.87) rotate(29.9481) scale(39.02 38.9791)">
<stop stop-color="#D4F6FF"/>
<stop offset="0.2" stop-color="#D9F7FF"/>
<stop offset="1" stop-color="#89C0F5"/>
</radialGradient>
<radialGradient id="paint17_radial_722_171" cx="0" cy="0" r="1" gradientUnits="userSpaceOnUse" gradientTransform="translate(621.218 -7.82107) rotate(156.084) scale(8.73249 12.684)">
<stop stop-color="white"/>
<stop offset="0.1" stop-color="white" stop-opacity="0.85"/>
<stop offset="0.29" stop-color="white" stop-opacity="0.59"/>
<stop offset="0.47" stop-color="white" stop-opacity="0.38"/>
<stop offset="0.63" stop-color="white" stop-opacity="0.22"/>
<stop offset="0.78" stop-color="white" stop-opacity="0.1"/>
<stop offset="0.91" stop-color="white" stop-opacity="0.03"/>
<stop offset="1" stop-color="white" stop-opacity="0"/>
</radialGradient>
</defs>
</svg>
