<svg width="233" height="257" viewBox="0 0 233 257" fill="none" xmlns="http://www.w3.org/2000/svg">
<path d="M38.4414 104.016C38.4414 140.159 67.6667 169.473 103.7 169.473C139.734 169.473 168.959 140.159 168.959 104.016C168.959 67.8727 139.734 38.5583 103.7 38.5583C67.6667 38.5583 38.4414 67.8727 38.4414 104.016Z" fill="url(#paint0_radial_722_204)"/>
<path style="mix-blend-mode:overlay" d="M113.636 97.2702C97.0026 83.7512 90.5265 63.1534 99.1336 51.2722C107.741 39.3911 128.221 40.7235 144.854 54.2425C161.459 67.7616 167.963 88.3593 159.355 100.24C150.721 112.122 130.269 110.789 113.663 97.2702H113.636Z" fill="url(#paint1_radial_722_204)"/>
<path style="mix-blend-mode:overlay" opacity="0.4" d="M46.0243 118.479C48.2383 111.233 59.4192 114.231 71.043 125.169C82.6667 136.106 90.2774 150.847 88.0911 158.092C85.9047 165.337 74.6961 162.339 63.0724 151.402C51.4764 140.464 43.8379 125.724 46.0243 118.479Z" fill="url(#paint2_radial_722_204)"/>
<path d="M111.615 19.2098C111.615 23.5958 108.073 27.1491 103.7 27.1491C99.3271 27.1491 95.7847 23.5958 95.7847 19.2098V7.9393C95.7847 3.55325 99.3271 0 103.7 0C108.073 0 111.615 3.55325 111.615 7.9393V19.2098Z" fill="url(#paint3_radial_722_204)"/>
<path d="M49.5115 38.4196C52.6112 41.5287 52.6112 46.5532 49.5115 49.6623C46.4118 52.7714 41.4026 52.7714 38.3306 49.6623L30.3877 41.6952C27.2881 38.5861 27.2881 33.5616 30.3877 30.4803C33.4874 27.3712 38.4967 27.3712 41.5686 30.4803L49.5115 38.4473V38.4196Z" fill="url(#paint4_radial_722_204)"/>
<path d="M19.1514 96.0767C23.5242 96.0767 27.0666 99.6299 27.0666 104.016C27.0666 108.402 23.5242 111.955 19.1514 111.955H7.91519C3.54246 111.955 0 108.402 0 104.016C0 99.6299 3.54246 96.0767 7.91519 96.0767H19.1514Z" fill="url(#paint5_radial_722_204)"/>
<path d="M38.3028 158.369C41.4024 155.26 46.4117 155.26 49.4837 158.369C52.5833 161.479 52.5833 166.503 49.4837 169.584L41.5408 177.551C38.4411 180.661 33.4319 180.661 30.3599 177.551C27.2602 174.442 27.2602 169.418 30.3599 166.309L38.3028 158.342V158.369Z" fill="url(#paint6_radial_722_204)"/>
<path d="M95.7847 188.822C95.7847 184.436 99.3271 180.883 103.7 180.883C108.073 180.883 111.615 184.436 111.615 188.822V200.093C111.615 204.479 108.073 208.032 103.7 208.032C99.3271 208.032 95.7847 204.479 95.7847 200.093V188.822Z" fill="url(#paint7_radial_722_204)"/>
<path d="M157.889 169.584C154.789 166.475 154.789 161.451 157.889 158.369C160.988 155.26 165.998 155.26 169.07 158.369L177.012 166.336C180.112 169.446 180.112 174.47 177.012 177.579C173.913 180.688 168.904 180.688 165.804 177.579L157.861 169.612L157.889 169.584Z" fill="url(#paint8_radial_722_204)"/>
<path d="M188.249 111.955C183.876 111.955 180.333 108.402 180.333 104.016C180.333 99.6299 183.876 96.0767 188.249 96.0767H199.485C203.858 96.0767 207.4 99.6299 207.4 104.016C207.4 108.402 203.858 111.955 199.485 111.955H188.249Z" fill="url(#paint9_radial_722_204)"/>
<path d="M169.07 49.6623C165.97 52.7714 160.961 52.7714 157.889 49.6623C154.789 46.5532 154.789 41.5287 157.889 38.4473L165.832 30.4803C168.931 27.3712 173.94 27.3712 177.012 30.4803C180.112 33.5894 180.112 38.6139 177.012 41.723L169.07 49.69V49.6623Z" fill="url(#paint10_radial_722_204)"/>
<path d="M46.6054 117.424C67.8602 117.424 85.7108 132.192 90.4987 152.04C94.3733 150.153 98.6907 149.07 103.257 149.07C119.475 149.07 132.621 162.256 132.621 178.551C132.621 194.846 119.475 208.004 103.257 208.004H46.6054C21.6698 208.004 1.43896 187.712 1.43896 162.7C1.43896 137.688 21.6698 117.396 46.6054 117.396V117.424Z" fill="url(#paint11_radial_722_204)"/>
<path d="M46.6054 117.424C67.8602 117.424 85.7108 132.192 90.4987 152.04C94.3733 150.153 98.6907 149.07 103.257 149.07C119.475 149.07 132.621 162.256 132.621 178.551C132.621 194.846 119.475 208.004 103.257 208.004H46.6054C21.6698 208.004 1.43896 187.712 1.43896 162.7C1.43896 137.688 21.6698 117.396 46.6054 117.396V117.424Z" fill="url(#paint12_radial_722_204)"/>
<path style="mix-blend-mode:overlay" d="M40.8211 160.729C52.5832 151.152 57.1773 136.578 51.0887 128.195C45.0001 119.783 30.4981 120.727 18.736 130.277C6.97394 139.854 2.40748 154.428 8.49609 162.811C14.5847 171.222 29.0867 170.278 40.8211 160.729Z" fill="url(#paint13_radial_722_204)"/>
<path style="mix-blend-mode:overlay" opacity="0.4" d="M99.9913 173.138C106.44 167.863 108.986 159.868 105.637 155.26C102.288 150.624 94.3178 151.152 87.8694 156.398C81.421 161.645 78.9026 169.668 82.2236 174.276C85.5724 178.912 93.5429 178.384 99.9913 173.138Z" fill="url(#paint14_radial_722_204)"/>
<path style="mix-blend-mode:overlay" opacity="0.2" d="M114.327 184.602C121.44 177.385 128.774 174.581 130.739 178.301C132.676 182.021 128.497 190.904 121.412 198.121C114.3 205.339 106.966 208.143 105.001 204.423C103.063 200.703 107.242 191.82 114.327 184.602Z" fill="url(#paint15_radial_722_204)"/>
<path d="M197.188 65.2632C180.333 65.2632 166.191 76.9778 162.4 92.7176C159.328 91.2186 155.896 90.3858 152.271 90.3858C139.401 90.3858 128.968 100.851 128.968 113.76C128.968 126.668 139.401 137.133 152.271 137.133H197.188C216.976 137.133 233 121.06 233 101.212C233 81.3638 216.976 65.2909 197.188 65.2909V65.2632Z" fill="url(#paint16_radial_722_204)"/>
<path d="M197.188 65.2632C180.333 65.2632 166.191 76.9778 162.4 92.7176C159.328 91.2186 155.896 90.3858 152.271 90.3858C139.401 90.3858 128.968 100.851 128.968 113.76C128.968 126.668 139.401 137.133 152.271 137.133H197.188C216.976 137.133 233 121.06 233 101.212C233 81.3638 216.976 65.2909 197.188 65.2909V65.2632Z" fill="url(#paint17_radial_722_204)"/>
<path style="mix-blend-mode:overlay" d="M201.782 99.6019C192.455 92.0235 188.83 80.4477 193.645 73.7853C198.489 67.123 209.946 67.8725 219.301 75.4509C228.627 83.0294 232.253 94.6052 227.437 101.268C222.594 107.93 211.109 107.18 201.782 99.6019Z" fill="url(#paint18_radial_722_204)"/>
<path style="mix-blend-mode:overlay" opacity="0.4" d="M154.844 109.457C149.724 105.293 147.732 98.9358 150.361 95.2715C153.018 91.6072 159.328 92.0236 164.448 96.1876C169.568 100.352 171.56 106.709 168.931 110.373C166.274 114.037 159.964 113.621 154.844 109.457Z" fill="url(#paint19_radial_722_204)"/>
<path style="mix-blend-mode:overlay" opacity="0.2" d="M143.497 118.534C137.851 112.816 132.04 110.567 130.49 113.537C128.94 116.48 132.261 123.531 137.879 129.25C143.525 134.968 149.337 137.189 150.887 134.246C152.436 131.276 149.115 124.253 143.497 118.534Z" fill="url(#paint20_radial_722_204)"/>
<path d="M51.2275 251.282C48.0725 256.75 41.1259 258.61 35.6738 255.445C30.2218 252.309 28.3675 245.313 31.5225 239.845C34.6498 234.376 54.1057 223.438 54.1057 223.438C54.1057 223.438 54.3825 245.785 51.2275 251.254V251.282Z" fill="url(#paint21_radial_722_204)"/>
<path style="mix-blend-mode:overlay" d="M31.8546 249.394C30.0834 244.786 31.1627 239.9 34.2624 238.54C37.3621 237.152 41.292 239.789 43.0632 244.425C44.8344 249.061 43.7551 253.919 40.6554 255.279C37.5558 256.667 33.6259 254.03 31.8546 249.394Z" fill="url(#paint22_radial_722_204)"/>
<path d="M99.1059 251.282C95.9786 256.75 89.0044 258.61 83.5523 255.445C78.1002 252.281 76.246 245.313 79.3733 239.845C82.5283 234.376 101.957 223.438 101.957 223.438C101.957 223.438 102.233 245.785 99.0782 251.254L99.1059 251.282Z" fill="url(#paint23_radial_722_204)"/>
<path style="mix-blend-mode:overlay" d="M79.733 249.394C77.9618 244.786 79.0412 239.9 82.1408 238.54C85.2405 237.152 89.1704 239.789 90.9139 244.425C92.6852 249.061 91.6058 253.919 88.5062 255.279C85.4065 256.667 81.4766 254.03 79.733 249.394Z" fill="url(#paint24_radial_722_204)"/>
<path d="M146.957 251.282C143.83 256.75 136.855 258.61 131.403 255.445C125.951 252.281 124.097 245.313 127.224 239.845C130.379 234.376 149.808 223.438 149.808 223.438C149.808 223.438 150.084 245.785 146.929 251.254L146.957 251.282Z" fill="url(#paint25_radial_722_204)"/>
<path style="mix-blend-mode:overlay" d="M127.584 249.394C125.813 244.786 126.892 239.9 129.992 238.54C133.092 237.152 137.021 239.789 138.765 244.425C140.536 249.061 139.457 253.919 136.357 255.279C133.258 256.667 129.328 254.03 127.584 249.394Z" fill="url(#paint26_radial_722_204)"/>
<path d="M194.835 251.282C191.708 256.75 184.734 258.61 179.282 255.445C173.83 252.309 171.975 245.313 175.103 239.845C178.258 234.376 197.686 223.438 197.686 223.438C197.686 223.438 197.963 245.785 194.808 251.254L194.835 251.282Z" fill="url(#paint27_radial_722_204)"/>
<path style="mix-blend-mode:overlay" d="M175.463 249.394C173.691 244.786 174.771 239.9 177.87 238.54C180.97 237.152 184.9 239.789 186.643 244.425C188.415 249.061 187.335 253.919 184.236 255.279C181.136 256.667 177.206 254.03 175.463 249.394Z" fill="url(#paint28_radial_722_204)"/>
<defs>
<radialGradient id="paint0_radial_722_204" cx="0" cy="0" r="1" gradientUnits="userSpaceOnUse" gradientTransform="translate(118.645 62.9592) rotate(-180) scale(123.876 124.253)">
<stop stop-color="#FFF8C7"/>
<stop offset="0.16" stop-color="#FFE436"/>
<stop offset="1" stop-color="#FE761C"/>
</radialGradient>
<radialGradient id="paint1_radial_722_204" cx="0" cy="0" r="1" gradientUnits="userSpaceOnUse" gradientTransform="translate(480.624 -418.312) rotate(125.947) scale(26.648 38.7243)">
<stop stop-color="white"/>
<stop offset="0.1" stop-color="white" stop-opacity="0.85"/>
<stop offset="0.29" stop-color="white" stop-opacity="0.59"/>
<stop offset="0.47" stop-color="white" stop-opacity="0.38"/>
<stop offset="0.63" stop-color="white" stop-opacity="0.22"/>
<stop offset="0.78" stop-color="white" stop-opacity="0.1"/>
<stop offset="0.91" stop-color="white" stop-opacity="0.03"/>
<stop offset="1" stop-color="white" stop-opacity="0"/>
</radialGradient>
<radialGradient id="paint2_radial_722_204" cx="0" cy="0" r="1" gradientUnits="userSpaceOnUse" gradientTransform="translate(1725.65 1727.15) rotate(-136.703) scale(28.9145 12.2146)">
<stop stop-color="white"/>
<stop offset="0.1" stop-color="white" stop-opacity="0.85"/>
<stop offset="0.29" stop-color="white" stop-opacity="0.59"/>
<stop offset="0.47" stop-color="white" stop-opacity="0.38"/>
<stop offset="0.63" stop-color="white" stop-opacity="0.22"/>
<stop offset="0.78" stop-color="white" stop-opacity="0.1"/>
<stop offset="0.91" stop-color="white" stop-opacity="0.03"/>
<stop offset="1" stop-color="white" stop-opacity="0"/>
</radialGradient>
<radialGradient id="paint3_radial_722_204" cx="0" cy="0" r="1" gradientUnits="userSpaceOnUse" gradientTransform="translate(105.139 3.99741) scale(21.5592 21.6249)">
<stop stop-color="#FFF8C7"/>
<stop offset="0.16" stop-color="#FFE436"/>
<stop offset="1" stop-color="#FE761C"/>
</radialGradient>
<radialGradient id="paint4_radial_722_204" cx="0" cy="0" r="1" gradientUnits="userSpaceOnUse" gradientTransform="translate(34.2173 32.2634) rotate(-45.0871) scale(21.5921 21.592)">
<stop stop-color="#FFF8C7"/>
<stop offset="0.16" stop-color="#FFE436"/>
<stop offset="1" stop-color="#FE761C"/>
</radialGradient>
<radialGradient id="paint5_radial_722_204" cx="0" cy="0" r="1" gradientUnits="userSpaceOnUse" gradientTransform="translate(4.01295 102.572) rotate(-90) scale(21.6249 21.5592)">
<stop stop-color="#FFF8C7"/>
<stop offset="0.16" stop-color="#FFE436"/>
<stop offset="1" stop-color="#FE761C"/>
</radialGradient>
<radialGradient id="paint6_radial_722_204" cx="0" cy="0" r="1" gradientUnits="userSpaceOnUse" gradientTransform="translate(32.1624 173.687) rotate(-134.913) scale(21.5921 21.592)">
<stop stop-color="#FFF8C7"/>
<stop offset="0.16" stop-color="#FFE436"/>
<stop offset="1" stop-color="#FE761C"/>
</radialGradient>
<radialGradient id="paint7_radial_722_204" cx="0" cy="0" r="1" gradientUnits="userSpaceOnUse" gradientTransform="translate(102.261 204.007) rotate(180) scale(21.5592 21.6249)">
<stop stop-color="#FFF8C7"/>
<stop offset="0.16" stop-color="#FFE436"/>
<stop offset="1" stop-color="#FE761C"/>
</radialGradient>
<radialGradient id="paint8_radial_722_204" cx="0" cy="0" r="1" gradientUnits="userSpaceOnUse" gradientTransform="translate(173.137 175.768) rotate(134.913) scale(21.5921 21.592)">
<stop stop-color="#FFF8C7"/>
<stop offset="0.16" stop-color="#FFE436"/>
<stop offset="1" stop-color="#FE761C"/>
</radialGradient>
<radialGradient id="paint9_radial_722_204" cx="0" cy="0" r="1" gradientUnits="userSpaceOnUse" gradientTransform="translate(203.415 105.459) rotate(90) scale(21.6249 21.5592)">
<stop stop-color="#FFF8C7"/>
<stop offset="0.16" stop-color="#FFE436"/>
<stop offset="1" stop-color="#FE761C"/>
</radialGradient>
<radialGradient id="paint10_radial_722_204" cx="0" cy="0" r="1" gradientUnits="userSpaceOnUse" gradientTransform="translate(175.192 34.3163) rotate(45.0871) scale(21.5921 21.592)">
<stop stop-color="#FFF8C7"/>
<stop offset="0.16" stop-color="#FFE436"/>
<stop offset="1" stop-color="#FE761C"/>
</radialGradient>
<radialGradient id="paint11_radial_722_204" cx="0" cy="0" r="1" gradientUnits="userSpaceOnUse" gradientTransform="translate(29.668 129.86) rotate(180) scale(112.113 112.455)">
<stop stop-color="white"/>
<stop offset="0.2" stop-color="#D9F7FF"/>
<stop offset="1" stop-color="#89C0F5"/>
</radialGradient>
<radialGradient id="paint12_radial_722_204" cx="0" cy="0" r="1" gradientUnits="userSpaceOnUse" gradientTransform="translate(69.7974 125.779) scale(112.169 112.51)">
<stop stop-color="#FFE436"/>
<stop offset="0.08" stop-color="#FECE30" stop-opacity="0.81"/>
<stop offset="0.18" stop-color="#FEB72B" stop-opacity="0.6"/>
<stop offset="0.28" stop-color="#FEA326" stop-opacity="0.41"/>
<stop offset="0.38" stop-color="#FE9322" stop-opacity="0.26"/>
<stop offset="0.48" stop-color="#FE861F" stop-opacity="0.15"/>
<stop offset="0.58" stop-color="#FE7D1D" stop-opacity="0.07"/>
<stop offset="0.68" stop-color="#FE771C" stop-opacity="0.02"/>
<stop offset="0.77" stop-color="#FE761C" stop-opacity="0"/>
</radialGradient>
<radialGradient id="paint13_radial_722_204" cx="0" cy="0" r="1" gradientUnits="userSpaceOnUse" gradientTransform="translate(-434.177 -507.288) rotate(54.0528) scale(18.836 27.3721)">
<stop stop-color="white"/>
<stop offset="0.1" stop-color="white" stop-opacity="0.85"/>
<stop offset="0.29" stop-color="white" stop-opacity="0.59"/>
<stop offset="0.47" stop-color="white" stop-opacity="0.38"/>
<stop offset="0.63" stop-color="white" stop-opacity="0.22"/>
<stop offset="0.78" stop-color="white" stop-opacity="0.1"/>
<stop offset="0.91" stop-color="white" stop-opacity="0.03"/>
<stop offset="1" stop-color="white" stop-opacity="0"/>
</radialGradient>
<radialGradient id="paint14_radial_722_204" cx="0" cy="0" r="1" gradientUnits="userSpaceOnUse" gradientTransform="translate(-368.743 -486.157) rotate(54.0528) scale(10.3499 15.0403)">
<stop stop-color="white"/>
<stop offset="0.1" stop-color="white" stop-opacity="0.85"/>
<stop offset="0.29" stop-color="white" stop-opacity="0.59"/>
<stop offset="0.47" stop-color="white" stop-opacity="0.38"/>
<stop offset="0.63" stop-color="white" stop-opacity="0.22"/>
<stop offset="0.78" stop-color="white" stop-opacity="0.1"/>
<stop offset="0.91" stop-color="white" stop-opacity="0.03"/>
<stop offset="1" stop-color="white" stop-opacity="0"/>
</radialGradient>
<radialGradient id="paint15_radial_722_204" cx="0" cy="0" r="1" gradientUnits="userSpaceOnUse" gradientTransform="translate(198.685 244.865) rotate(-146.91) scale(6.35229 17.4146)">
<stop stop-color="white"/>
<stop offset="0.1" stop-color="white" stop-opacity="0.85"/>
<stop offset="0.29" stop-color="white" stop-opacity="0.59"/>
<stop offset="0.47" stop-color="white" stop-opacity="0.38"/>
<stop offset="0.63" stop-color="white" stop-opacity="0.22"/>
<stop offset="0.78" stop-color="white" stop-opacity="0.1"/>
<stop offset="0.91" stop-color="white" stop-opacity="0.03"/>
<stop offset="1" stop-color="white" stop-opacity="0"/>
</radialGradient>
<radialGradient id="paint16_radial_722_204" cx="0" cy="0" r="1" gradientUnits="userSpaceOnUse" gradientTransform="translate(210.61 75.1179) scale(88.9214 89.1922)">
<stop stop-color="white"/>
<stop offset="0.2" stop-color="#D9F7FF"/>
<stop offset="1" stop-color="#89C0F5"/>
</radialGradient>
<radialGradient id="paint17_radial_722_204" cx="0" cy="0" r="1" gradientUnits="userSpaceOnUse" gradientTransform="translate(133.451 93.4116) scale(103.423 103.738)">
<stop stop-color="#FFE436"/>
<stop offset="0.08" stop-color="#FECE30" stop-opacity="0.81"/>
<stop offset="0.18" stop-color="#FEB72B" stop-opacity="0.6"/>
<stop offset="0.28" stop-color="#FEA326" stop-opacity="0.41"/>
<stop offset="0.38" stop-color="#FE9322" stop-opacity="0.26"/>
<stop offset="0.48" stop-color="#FE861F" stop-opacity="0.15"/>
<stop offset="0.58" stop-color="#FE7D1D" stop-opacity="0.07"/>
<stop offset="0.68" stop-color="#FE771C" stop-opacity="0.02"/>
<stop offset="0.77" stop-color="#FE761C" stop-opacity="0"/>
</radialGradient>
<radialGradient id="paint18_radial_722_204" cx="0" cy="0" r="1" gradientUnits="userSpaceOnUse" gradientTransform="translate(501.204 -320.918) rotate(125.947) scale(14.9499 21.7248)">
<stop stop-color="white"/>
<stop offset="0.1" stop-color="white" stop-opacity="0.85"/>
<stop offset="0.29" stop-color="white" stop-opacity="0.59"/>
<stop offset="0.47" stop-color="white" stop-opacity="0.38"/>
<stop offset="0.63" stop-color="white" stop-opacity="0.22"/>
<stop offset="0.78" stop-color="white" stop-opacity="0.1"/>
<stop offset="0.91" stop-color="white" stop-opacity="0.03"/>
<stop offset="1" stop-color="white" stop-opacity="0"/>
</radialGradient>
<radialGradient id="paint19_radial_722_204" cx="0" cy="0" r="1" gradientUnits="userSpaceOnUse" gradientTransform="translate(449.272 -304.172) rotate(125.947) scale(8.20855 11.9285)">
<stop stop-color="white"/>
<stop offset="0.1" stop-color="white" stop-opacity="0.85"/>
<stop offset="0.29" stop-color="white" stop-opacity="0.59"/>
<stop offset="0.47" stop-color="white" stop-opacity="0.38"/>
<stop offset="0.63" stop-color="white" stop-opacity="0.22"/>
<stop offset="0.78" stop-color="white" stop-opacity="0.1"/>
<stop offset="0.91" stop-color="white" stop-opacity="0.03"/>
<stop offset="1" stop-color="white" stop-opacity="0"/>
</radialGradient>
<radialGradient id="paint20_radial_722_204" cx="0" cy="0" r="1" gradientUnits="userSpaceOnUse" gradientTransform="translate(289.604 24.6185) rotate(-33.0896) scale(5.04925 13.8424)">
<stop stop-color="white"/>
<stop offset="0.1" stop-color="white" stop-opacity="0.85"/>
<stop offset="0.29" stop-color="white" stop-opacity="0.59"/>
<stop offset="0.47" stop-color="white" stop-opacity="0.38"/>
<stop offset="0.63" stop-color="white" stop-opacity="0.22"/>
<stop offset="0.78" stop-color="white" stop-opacity="0.1"/>
<stop offset="0.91" stop-color="white" stop-opacity="0.03"/>
<stop offset="1" stop-color="white" stop-opacity="0"/>
</radialGradient>
<radialGradient id="paint21_radial_722_204" cx="0" cy="0" r="1" gradientUnits="userSpaceOnUse" gradientTransform="translate(35.9884 248.687) rotate(30.0755) scale(27.3919 27.4335)">
<stop stop-color="#D4F6FF"/>
<stop offset="0.2" stop-color="#D9F7FF"/>
<stop offset="1" stop-color="#89C0F5"/>
</radialGradient>
<radialGradient id="paint22_radial_722_204" cx="0" cy="0" r="1" gradientUnits="userSpaceOnUse" gradientTransform="translate(565.688 4.97525) rotate(155.975) scale(6.13736 8.94525)">
<stop stop-color="white"/>
<stop offset="0.1" stop-color="white" stop-opacity="0.85"/>
<stop offset="0.29" stop-color="white" stop-opacity="0.59"/>
<stop offset="0.47" stop-color="white" stop-opacity="0.38"/>
<stop offset="0.63" stop-color="white" stop-opacity="0.22"/>
<stop offset="0.78" stop-color="white" stop-opacity="0.1"/>
<stop offset="0.91" stop-color="white" stop-opacity="0.03"/>
<stop offset="1" stop-color="white" stop-opacity="0"/>
</radialGradient>
<radialGradient id="paint23_radial_722_204" cx="0" cy="0" r="1" gradientUnits="userSpaceOnUse" gradientTransform="translate(83.8615 248.684) rotate(30.0755) scale(27.3919 27.4335)">
<stop stop-color="#D4F6FF"/>
<stop offset="0.2" stop-color="#D9F7FF"/>
<stop offset="1" stop-color="#89C0F5"/>
</radialGradient>
<radialGradient id="paint24_radial_722_204" cx="0" cy="0" r="1" gradientUnits="userSpaceOnUse" gradientTransform="translate(614.565 4.54502) rotate(155.975) scale(6.13736 8.94525)">
<stop stop-color="white"/>
<stop offset="0.1" stop-color="white" stop-opacity="0.85"/>
<stop offset="0.29" stop-color="white" stop-opacity="0.59"/>
<stop offset="0.47" stop-color="white" stop-opacity="0.38"/>
<stop offset="0.63" stop-color="white" stop-opacity="0.22"/>
<stop offset="0.78" stop-color="white" stop-opacity="0.1"/>
<stop offset="0.91" stop-color="white" stop-opacity="0.03"/>
<stop offset="1" stop-color="white" stop-opacity="0"/>
</radialGradient>
<radialGradient id="paint25_radial_722_204" cx="0" cy="0" r="1" gradientUnits="userSpaceOnUse" gradientTransform="translate(131.735 248.681) rotate(30.0755) scale(27.3919 27.4335)">
<stop stop-color="#D4F6FF"/>
<stop offset="0.2" stop-color="#D9F7FF"/>
<stop offset="1" stop-color="#89C0F5"/>
</radialGradient>
<radialGradient id="paint26_radial_722_204" cx="0" cy="0" r="1" gradientUnits="userSpaceOnUse" gradientTransform="translate(663.455 4.04589) rotate(155.975) scale(6.13736 8.94525)">
<stop stop-color="white"/>
<stop offset="0.1" stop-color="white" stop-opacity="0.85"/>
<stop offset="0.29" stop-color="white" stop-opacity="0.59"/>
<stop offset="0.47" stop-color="white" stop-opacity="0.38"/>
<stop offset="0.63" stop-color="white" stop-opacity="0.22"/>
<stop offset="0.78" stop-color="white" stop-opacity="0.1"/>
<stop offset="0.91" stop-color="white" stop-opacity="0.03"/>
<stop offset="1" stop-color="white" stop-opacity="0"/>
</radialGradient>
<radialGradient id="paint27_radial_722_204" cx="0" cy="0" r="1" gradientUnits="userSpaceOnUse" gradientTransform="translate(179.608 248.678) rotate(30.0755) scale(27.3919 27.4335)">
<stop stop-color="#D4F6FF"/>
<stop offset="0.2" stop-color="#D9F7FF"/>
<stop offset="1" stop-color="#89C0F5"/>
</radialGradient>
<radialGradient id="paint28_radial_722_204" cx="0" cy="0" r="1" gradientUnits="userSpaceOnUse" gradientTransform="translate(712.368 3.59953) rotate(155.975) scale(6.13736 8.94525)">
<stop stop-color="white"/>
<stop offset="0.1" stop-color="white" stop-opacity="0.85"/>
<stop offset="0.29" stop-color="white" stop-opacity="0.59"/>
<stop offset="0.47" stop-color="white" stop-opacity="0.38"/>
<stop offset="0.63" stop-color="white" stop-opacity="0.22"/>
<stop offset="0.78" stop-color="white" stop-opacity="0.1"/>
<stop offset="0.91" stop-color="white" stop-opacity="0.03"/>
<stop offset="1" stop-color="white" stop-opacity="0"/>
</radialGradient>
</defs>
</svg>
